<?xml version="1.0" encoding="UTF-8" standalone="no"?>
<!-- Created with Inkscape (http://www.inkscape.org/) -->

<svg
   xmlns:dc="http://purl.org/dc/elements/1.1/"
   xmlns:cc="http://creativecommons.org/ns#"
   xmlns:rdf="http://www.w3.org/1999/02/22-rdf-syntax-ns#"
   xmlns:svg="http://www.w3.org/2000/svg"
   xmlns="http://www.w3.org/2000/svg"
   xmlns:sodipodi="http://sodipodi.sourceforge.net/DTD/sodipodi-0.dtd"
   xmlns:inkscape="http://www.inkscape.org/namespaces/inkscape"
   width="161.12384mm"
   height="33.371223mm"
   viewBox="0 0 570.91125 118.24449"
   id="svg2"
   version="1.1"
   inkscape:version="0.91 r13725"
   sodipodi:docname="pc98_8.svg"
   inkscape:export-filename="H:\docs\Kensaku\Pictures\pc9821np2s.png"
   inkscape:export-xdpi="12.939292"
   inkscape:export-ydpi="12.939292">
  <defs
     id="defs4" />
  <sodipodi:namedview
     id="base"
     pagecolor="#ffffff"
     bordercolor="#666666"
     borderopacity="1.0"
     inkscape:pageopacity="0.0"
     inkscape:pageshadow="2"
     inkscape:zoom="0.70710678"
     inkscape:cx="181.71922"
     inkscape:cy="5.983608"
     inkscape:document-units="px"
     inkscape:current-layer="layer1"
     showgrid="false"
     inkscape:window-width="1920"
     inkscape:window-height="1031"
     inkscape:window-x="-8"
     inkscape:window-y="-8"
     inkscape:window-maximized="1"
     inkscape:snap-bbox="true"
     inkscape:snap-nodes="false"
     inkscape:bbox-nodes="true"
     inkscape:snap-bbox-edge-midpoints="false"
     inkscape:snap-bbox-midpoints="true"
     inkscape:bbox-paths="false"
     fit-margin-top="2"
     fit-margin-left="2"
     fit-margin-right="2"
     fit-margin-bottom="2" />
  <metadata
     id="metadata7">
    <rdf:RDF>
      <cc:Work
         rdf:about="">
        <dc:format>image/svg+xml</dc:format>
        <dc:type
           rdf:resource="http://purl.org/dc/dcmitype/StillImage" />
        <dc:title></dc:title>
      </cc:Work>
    </rdf:RDF>
  </metadata>
  <g
     inkscape:label="ƒŒƒCƒ„[ 1"
     inkscape:groupmode="layer"
     id="layer1"
     transform="translate(-71.831355,-120.0256)">
    <path
       style="opacity:0.91500005;fill:#000000;fill-opacity:1;stroke:none;stroke-opacity:1"
       d="m 234.11914,156.29688 a 15.915178,15.915178 0 0 0 -15.91406,15.91601 l 0,2.38672 a 15.915178,15.915178 0 0 0 15.91406,15.91601 l 21.57227,0 0,-11.88085 -21.57227,0 a 4.0348029,4.0348029 0 0 1 -4.03516,-4.03516 l 0.002,0 0,-2.38672 -0.002,0 a 4.0348029,4.0348029 0 0 1 4.03516,-4.03516 l 19.32227,0 a 4.0348029,4.0348029 0 0 1 4.03515,4.03516 l -0.002,0 0,20.91211 0.002,0 a 4.0348029,4.0348029 0 0 1 -4.03515,4.03516 l 0,0.002 -33.46485,0 0,11.87891 33.46485,0 A 15.915178,15.915178 0 0 0 269.35547,193.125 l 0,-20.91211 a 15.915178,15.915178 0 0 0 -15.91406,-15.91601 l -19.32227,0 z"
       id="path4500-1"
       inkscape:connector-curvature="0" />
    <rect
       style="opacity:1;fill:#000000;fill-opacity:1;stroke:none;stroke-opacity:1"
       id="rect4170-0-54-4-4-0-4-3"
       width="11.880373"
       height="17.505882"
       x="177.88501"
       y="-214.13922"
       transform="matrix(0,1,-1,0,0,0)" />
    <path
       style="opacity:0.91500005;fill:#000000;fill-opacity:1;stroke:none;stroke-opacity:1"
       d="m 157.21875,156.29688 a 15.915178,15.915178 0 0 0 -15.91406,15.91601 l 0,20.91211 a 15.915178,15.915178 0 0 0 15.91406,15.91602 l 36.99805,0 0,-11.87891 -36.99805,0 0,-0.002 a 4.0348029,4.0348029 0 0 1 -4.03516,-4.03516 l 0,-20.91211 a 4.0348029,4.0348029 0 0 1 4.03516,-4.03516 l 37,0 0,-11.88085 -37,0 z"
       id="path4500-1-1"
       inkscape:connector-curvature="0" />
    <path
       style="opacity:0.91500005;fill:#000000;fill-opacity:1;stroke:none;stroke-opacity:1"
       d="m 94.832031,156.29688 a 15.915178,15.915178 0 0 0 -15.914062,15.91601 l 0,36.82813 11.880859,0 0,-36.82813 -0.002,0 a 4.0348029,4.0348029 0 0 1 4.035156,-4.03516 l 24.978516,0 a 4.0348029,4.0348029 0 0 1 4.03515,4.03516 l 0,7.63672 a 4.0348029,4.0348029 0 0 1 -4.03515,4.03516 l -26.695313,0 0,11.88085 26.695313,0 a 15.915178,15.915178 0 0 0 15.91406,-15.91601 l 0,-7.63672 A 15.915178,15.915178 0 0 0 119.8105,156.29688 l -24.978516,0 z"
       id="path4500-1-3"
       inkscape:connector-curvature="0" />
    <path
       style="opacity:0.91500005;fill:#000000;fill-opacity:1;stroke:none;stroke-opacity:1"
       d="m 292.71484,156.29688 a 15.915178,15.915178 0 0 0 -15.91406,15.91601 15.915178,15.915178 0 0 0 2.93555,9.17773 15.915178,15.915178 0 0 0 -4.23242,10.78711 l 0,0.94727 a 15.915178,15.915178 0 0 0 15.91406,15.91602 l 20.82422,0 A 15.915178,15.915178 0 0 0 328.15625,193.125 l 0,-0.94727 a 15.915178,15.915178 0 0 0 -3.63281,-10.10351 15.915178,15.915178 0 0 0 3.42578,-9.86133 15.915178,15.915178 0 0 0 -15.91406,-15.91601 l -19.32032,0 z m 0,11.88085 19.32032,0 a 4.0348029,4.0348029 0 0 1 4.03515,4.03516 4.0348029,4.0348029 0 0 1 -4.03515,4.03516 l -19.32032,0 a 4.0348029,4.0348029 0 0 1 -4.03515,-4.03516 4.0348029,4.0348029 0 0 1 4.03515,-4.03516 z m -1.29687,19.88672 a 15.915178,15.915178 0 0 0 1.29687,0.0645 l 19.32032,0 a 15.915178,15.915178 0 0 0 0.20703,-0.01 l 0,0.0234 a 4.0348029,4.0348029 0 0 1 4.03515,4.03515 l 0,0.94727 a 4.0348029,4.0348029 0 0 1 -4.03515,4.03516 l 0,0.002 -20.82422,0 0,-0.002 a 4.0348029,4.0348029 0 0 1 -4.03516,-4.03516 l 0.002,0 0,-0.94727 -0.002,0 a 4.0348029,4.0348029 0 0 1 4.03516,-4.03515 l 0,-0.0781 z"
       id="path4500-1-31"
       inkscape:connector-curvature="0" />
    <path
       style="opacity:1;fill:none;fill-opacity:1;stroke:#000000;stroke-width:2;stroke-miterlimit:4;stroke-dasharray:none;stroke-opacity:1"
       d="m 335.82872,157.36778 0,11.3984 31.30593,0 c 2.13814,-1.9e-4 3.87148,1.73317 3.8713,3.8713 l 0,1.98812 c 1.7e-4,2.13813 -1.73317,3.87148 -3.8713,3.8713 l 0,0.002 -12.96117,0 c -10.05866,0.007 -18.28388,8.01976 -18.55264,18.07481 l -0.0169,0 0,11.39654 46.79475,0 0,-11.39654 -35.37199,0 c 0.26045,-3.75641 3.38131,-6.67189 7.14674,-6.6764 l 0,-0.002 12.96117,0 c 8.43268,-6e-4 15.26827,-6.83703 15.26783,-15.26971 l 0,-1.98812 c 4.4e-4,-8.43267 -6.83515,-15.2691 -15.26783,-15.2697 z"
       id="rect4170-0-54-4-4-0-6-3"
       inkscape:connector-curvature="0"
       sodipodi:nodetypes="ccccccccccccccccccccc" />
    <path
       style="opacity:1;fill:none;fill-opacity:1;stroke:#000000;stroke-width:2;stroke-miterlimit:4;stroke-dasharray:none;stroke-opacity:1"
       d="m 389.83216,157.36778 0,11.3984 4.17298,0 a 3.8709605,3.8709605 0 0 1 3.8713,3.8713 l -0.002,0 0,35.33265 11.39841,0 0,-35.33265 a 15.268905,15.268905 0 0 0 -15.26777,-15.2697 l -4.17298,0 z"
       id="path4500-1-0-0-91-25"
       inkscape:connector-curvature="0" />
    <text
       xml:space="preserve"
       style="font-style:normal;font-weight:normal;font-size:43.75711823px;line-height:125%;font-family:sans-serif;letter-spacing:0px;word-spacing:0px;fill:#000000;fill-opacity:1;stroke:none;stroke-width:1px;stroke-linecap:butt;stroke-linejoin:miter;stroke-opacity:1"
       x="481.32825"
       y="189.80838"
       id="text5219"
       sodipodi:linespacing="125%"
       transform="scale(0.91413702,1.0939279)"><tspan
         sodipodi:role="line"
         id="tspan5221"
         x="481.32825"
         y="189.80838"
         style="font-style:italic;font-variant:normal;font-weight:normal;font-stretch:normal;font-size:105px;font-family:STIX;-inkscape-font-specification:'STIX Italic'"
         dx="0 0 0 0 -30.229992 24.829956">NpI I </tspan></text>
    <rect
       style="opacity:1;fill:none;fill-opacity:1;stroke:none;stroke-width:2;stroke-miterlimit:4;stroke-dasharray:none;stroke-opacity:1"
       id="rect5223"
       width="20.25"
       height="1.125"
       x="582"
       y="127.11221" />
  </g>
</svg>
